<mxfile host="app.diagrams.net" modified="2020-10-27T11:24:39.182Z" agent="5.0 (Macintosh; Intel Mac OS X 10_15_7) AppleWebKit/605.1.15 (KHTML, like Gecko) Version/14.0 Safari/605.1.15" etag="WbtkiGwbFu5h0T77ck5n" version="13.8.3" type="github">
  <diagram name="Page-1" id="929967ad-93f9-6ef4-fab6-5d389245f69c">
    <mxGraphModel dx="1351" dy="946" grid="1" gridSize="10" guides="1" tooltips="1" connect="1" arrows="1" fold="1" page="1" pageScale="1.5" pageWidth="1169" pageHeight="826" background="none" math="0" shadow="0">
      <root>
        <mxCell id="0" style=";html=1;" />
        <mxCell id="1" style=";html=1;" parent="0" />
        <mxCell id="mNmTdsFCQ8Q4KUGaSOic-13" value="节点A" style="html=1;" vertex="1" parent="1">
          <mxGeometry x="498.75" y="470" width="172.5" height="50" as="geometry" />
        </mxCell>
        <mxCell id="mNmTdsFCQ8Q4KUGaSOic-15" value="SDK" style="html=1;" vertex="1" parent="1">
          <mxGeometry x="491.25" y="760" width="180" height="50" as="geometry" />
        </mxCell>
        <mxCell id="mNmTdsFCQ8Q4KUGaSOic-16" value="节点B" style="html=1;" vertex="1" parent="1">
          <mxGeometry x="490" y="620" width="182.5" height="50" as="geometry" />
        </mxCell>
        <mxCell id="mNmTdsFCQ8Q4KUGaSOic-20" value="通信协议" style="html=1;shadow=0;dashed=0;align=center;verticalAlign=middle;shape=mxgraph.arrows2.twoWayArrow;dy=0.63;dx=18.29;rotation=-90;" vertex="1" parent="1">
          <mxGeometry x="541.25" y="540" width="80" height="60" as="geometry" />
        </mxCell>
        <mxCell id="mNmTdsFCQ8Q4KUGaSOic-22" value="通信协议" style="html=1;shadow=0;dashed=0;align=center;verticalAlign=middle;shape=mxgraph.arrows2.twoWayArrow;dy=0.63;dx=18.29;rotation=-90;" vertex="1" parent="1">
          <mxGeometry x="553.75" y="680" width="65" height="65" as="geometry" />
        </mxCell>
      </root>
    </mxGraphModel>
  </diagram>
</mxfile>
